<svg xmlns="http://www.w3.org/2000/svg" width="1100" height="632" viewBox="0 0 1100 632" font-family="monospace"><rect width="1100" height="632" fill="#111418"/><text x="550" y="26" fill="#e8ecf4" font-size="15" text-anchor="middle">Decoded packet tree (icicle): operators fan out over their sub-packets down to literals</text><rect x="10.00" y="44" width="1080.00" height="24" fill="#0072B2" stroke="#111418" stroke-width="1"/><text x="550.00" y="56" fill="#0d0f18" font-size="12" font-weight="bold" text-anchor="middle" dominant-baseline="middle">+</text><rect x="10.00" y="70" width="19.17" height="24" fill="#009E73" stroke="#111418" stroke-width="1"/><rect x="10.00" y="96" width="6.39" height="24" fill="#56B4E9" stroke="#111418" stroke-width="1"/><rect x="16.39" y="96" width="6.39" height="24" fill="#56B4E9" stroke="#111418" stroke-width="1"/><rect x="22.78" y="96" width="6.39" height="24" fill="#56B4E9" stroke="#111418" stroke-width="1"/><rect x="29.17" y="70" width="19.17" height="24" fill="#E69F00" stroke="#111418" stroke-width="1"/><rect x="29.17" y="96" width="6.39" height="24" fill="#56B4E9" stroke="#111418" stroke-width="1"/><rect x="35.56" y="96" width="12.78" height="24" fill="#D55E00" stroke="#111418" stroke-width="1"/><rect x="35.56" y="122" width="6.39" height="24" fill="#56B4E9" stroke="#111418" stroke-width="1"/><rect x="41.95" y="122" width="6.39" height="24" fill="#56B4E9" stroke="#111418" stroke-width="1"/><rect x="48.34" y="70" width="6.39" height="24" fill="#56B4E9" stroke="#111418" stroke-width="1"/><rect x="54.73" y="70" width="6.39" height="24" fill="#E69F00" stroke="#111418" stroke-width="1"/><rect x="54.73" y="96" width="6.39" height="24" fill="#56B4E9" stroke="#111418" stroke-width="1"/><rect x="61.12" y="70" width="44.73" height="24" fill="#E69F00" stroke="#111418" stroke-width="1"/><text x="83.49" y="82" fill="#0d0f18" font-size="12" font-weight="bold" text-anchor="middle" dominant-baseline="middle">x</text><rect x="61.12" y="96" width="6.39" height="24" fill="#56B4E9" stroke="#111418" stroke-width="1"/><rect x="67.51" y="96" width="38.34" height="24" fill="#F0E442" stroke="#111418" stroke-width="1"/><text x="86.69" y="108" fill="#0d0f18" font-size="12" font-weight="bold" text-anchor="middle" dominant-baseline="middle">&lt;</text><rect x="67.51" y="122" width="19.17" height="24" fill="#0072B2" stroke="#111418" stroke-width="1"/><rect x="67.51" y="148" width="6.39" height="24" fill="#56B4E9" stroke="#111418" stroke-width="1"/><rect x="73.91" y="148" width="6.39" height="24" fill="#56B4E9" stroke="#111418" stroke-width="1"/><rect x="80.30" y="148" width="6.39" height="24" fill="#56B4E9" stroke="#111418" stroke-width="1"/><rect x="86.69" y="122" width="19.17" height="24" fill="#0072B2" stroke="#111418" stroke-width="1"/><rect x="86.69" y="148" width="6.39" height="24" fill="#56B4E9" stroke="#111418" stroke-width="1"/><rect x="93.08" y="148" width="6.39" height="24" fill="#56B4E9" stroke="#111418" stroke-width="1"/><rect x="99.47" y="148" width="6.39" height="24" fill="#56B4E9" stroke="#111418" stroke-width="1"/><rect x="105.86" y="70" width="19.17" height="24" fill="#E69F00" stroke="#111418" stroke-width="1"/><rect x="105.86" y="96" width="12.78" height="24" fill="#F0E442" stroke="#111418" stroke-width="1"/><rect x="105.86" y="122" width="6.39" height="24" fill="#56B4E9" stroke="#111418" stroke-width="1"/><rect x="112.25" y="122" width="6.39" height="24" fill="#56B4E9" stroke="#111418" stroke-width="1"/><rect x="118.64" y="96" width="6.39" height="24" fill="#56B4E9" stroke="#111418" stroke-width="1"/><rect x="125.03" y="70" width="19.17" height="24" fill="#E69F00" stroke="#111418" stroke-width="1"/><rect x="125.03" y="96" width="12.78" height="24" fill="#D55E00" stroke="#111418" stroke-width="1"/><rect x="125.03" y="122" width="6.39" height="24" fill="#56B4E9" stroke="#111418" stroke-width="1"/><rect x="131.42" y="122" width="6.39" height="24" fill="#56B4E9" stroke="#111418" stroke-width="1"/><rect x="137.81" y="96" width="6.39" height="24" fill="#56B4E9" stroke="#111418" stroke-width="1"/><rect x="144.20" y="70" width="6.39" height="24" fill="#56B4E9" stroke="#111418" stroke-width="1"/><rect x="150.59" y="70" width="6.39" height="24" fill="#56B4E9" stroke="#111418" stroke-width="1"/><rect x="156.98" y="70" width="19.17" height="24" fill="#E69F00" stroke="#111418" stroke-width="1"/><rect x="156.98" y="96" width="6.39" height="24" fill="#56B4E9" stroke="#111418" stroke-width="1"/><rect x="163.37" y="96" width="6.39" height="24" fill="#56B4E9" stroke="#111418" stroke-width="1"/><rect x="169.76" y="96" width="6.39" height="24" fill="#56B4E9" stroke="#111418" stroke-width="1"/><rect x="176.15" y="70" width="25.56" height="24" fill="#009E73" stroke="#111418" stroke-width="1"/><text x="188.93" y="82" fill="#0d0f18" font-size="12" font-weight="bold" text-anchor="middle" dominant-baseline="middle">min</text><rect x="176.15" y="96" width="6.39" height="24" fill="#56B4E9" stroke="#111418" stroke-width="1"/><rect x="182.54" y="96" width="6.39" height="24" fill="#56B4E9" stroke="#111418" stroke-width="1"/><rect x="188.93" y="96" width="6.39" height="24" fill="#56B4E9" stroke="#111418" stroke-width="1"/><rect x="195.33" y="96" width="6.39" height="24" fill="#56B4E9" stroke="#111418" stroke-width="1"/><rect x="201.72" y="70" width="6.39" height="24" fill="#56B4E9" stroke="#111418" stroke-width="1"/><rect x="208.11" y="70" width="19.17" height="24" fill="#E69F00" stroke="#111418" stroke-width="1"/><rect x="208.11" y="96" width="12.78" height="24" fill="#F0E442" stroke="#111418" stroke-width="1"/><rect x="208.11" y="122" width="6.39" height="24" fill="#56B4E9" stroke="#111418" stroke-width="1"/><rect x="214.50" y="122" width="6.39" height="24" fill="#56B4E9" stroke="#111418" stroke-width="1"/><rect x="220.89" y="96" width="6.39" height="24" fill="#56B4E9" stroke="#111418" stroke-width="1"/><rect x="227.28" y="70" width="19.17" height="24" fill="#E69F00" stroke="#111418" stroke-width="1"/><rect x="227.28" y="96" width="6.39" height="24" fill="#56B4E9" stroke="#111418" stroke-width="1"/><rect x="233.67" y="96" width="12.78" height="24" fill="#D55E00" stroke="#111418" stroke-width="1"/><rect x="233.67" y="122" width="6.39" height="24" fill="#56B4E9" stroke="#111418" stroke-width="1"/><rect x="240.06" y="122" width="6.39" height="24" fill="#56B4E9" stroke="#111418" stroke-width="1"/><rect x="246.45" y="70" width="6.39" height="24" fill="#56B4E9" stroke="#111418" stroke-width="1"/><rect x="252.84" y="70" width="19.17" height="24" fill="#CC79A7" stroke="#111418" stroke-width="1"/><rect x="252.84" y="96" width="6.39" height="24" fill="#56B4E9" stroke="#111418" stroke-width="1"/><rect x="259.23" y="96" width="6.39" height="24" fill="#56B4E9" stroke="#111418" stroke-width="1"/><rect x="265.62" y="96" width="6.39" height="24" fill="#56B4E9" stroke="#111418" stroke-width="1"/><rect x="272.01" y="70" width="12.78" height="24" fill="#009E73" stroke="#111418" stroke-width="1"/><rect x="272.01" y="96" width="6.39" height="24" fill="#56B4E9" stroke="#111418" stroke-width="1"/><rect x="278.40" y="96" width="6.39" height="24" fill="#56B4E9" stroke="#111418" stroke-width="1"/><rect x="284.79" y="70" width="25.56" height="24" fill="#0072B2" stroke="#111418" stroke-width="1"/><text x="297.57" y="82" fill="#0d0f18" font-size="12" font-weight="bold" text-anchor="middle" dominant-baseline="middle">+</text><rect x="284.79" y="96" width="6.39" height="24" fill="#56B4E9" stroke="#111418" stroke-width="1"/><rect x="291.18" y="96" width="6.39" height="24" fill="#56B4E9" stroke="#111418" stroke-width="1"/><rect x="297.57" y="96" width="6.39" height="24" fill="#56B4E9" stroke="#111418" stroke-width="1"/><rect x="303.96" y="96" width="6.39" height="24" fill="#56B4E9" stroke="#111418" stroke-width="1"/><rect x="310.36" y="70" width="6.39" height="24" fill="#0072B2" stroke="#111418" stroke-width="1"/><rect x="310.36" y="96" width="6.39" height="24" fill="#56B4E9" stroke="#111418" stroke-width="1"/><rect x="316.75" y="70" width="6.39" height="24" fill="#009E73" stroke="#111418" stroke-width="1"/><rect x="316.75" y="96" width="6.39" height="24" fill="#56B4E9" stroke="#111418" stroke-width="1"/><rect x="323.14" y="70" width="6.39" height="24" fill="#56B4E9" stroke="#111418" stroke-width="1"/><rect x="329.53" y="70" width="44.73" height="24" fill="#E69F00" stroke="#111418" stroke-width="1"/><text x="351.89" y="82" fill="#0d0f18" font-size="12" font-weight="bold" text-anchor="middle" dominant-baseline="middle">x</text><rect x="329.53" y="96" width="38.34" height="24" fill="#8c8c8c" stroke="#111418" stroke-width="1"/><text x="348.70" y="108" fill="#0d0f18" font-size="12" font-weight="bold" text-anchor="middle" dominant-baseline="middle">=</text><rect x="329.53" y="122" width="19.17" height="24" fill="#0072B2" stroke="#111418" stroke-width="1"/><rect x="329.53" y="148" width="6.39" height="24" fill="#56B4E9" stroke="#111418" stroke-width="1"/><rect x="335.92" y="148" width="6.39" height="24" fill="#56B4E9" stroke="#111418" stroke-width="1"/><rect x="342.31" y="148" width="6.39" height="24" fill="#56B4E9" stroke="#111418" stroke-width="1"/><rect x="348.70" y="122" width="19.17" height="24" fill="#0072B2" stroke="#111418" stroke-width="1"/><rect x="348.70" y="148" width="6.39" height="24" fill="#56B4E9" stroke="#111418" stroke-width="1"/><rect x="355.09" y="148" width="6.39" height="24" fill="#56B4E9" stroke="#111418" stroke-width="1"/><rect x="361.48" y="148" width="6.39" height="24" fill="#56B4E9" stroke="#111418" stroke-width="1"/><rect x="367.87" y="96" width="6.39" height="24" fill="#56B4E9" stroke="#111418" stroke-width="1"/><rect x="374.26" y="70" width="19.17" height="24" fill="#E69F00" stroke="#111418" stroke-width="1"/><rect x="374.26" y="96" width="6.39" height="24" fill="#56B4E9" stroke="#111418" stroke-width="1"/><rect x="380.65" y="96" width="12.78" height="24" fill="#8c8c8c" stroke="#111418" stroke-width="1"/><rect x="380.65" y="122" width="6.39" height="24" fill="#56B4E9" stroke="#111418" stroke-width="1"/><rect x="387.04" y="122" width="6.39" height="24" fill="#56B4E9" stroke="#111418" stroke-width="1"/><rect x="393.43" y="70" width="19.17" height="24" fill="#E69F00" stroke="#111418" stroke-width="1"/><rect x="393.43" y="96" width="12.78" height="24" fill="#D55E00" stroke="#111418" stroke-width="1"/><rect x="393.43" y="122" width="6.39" height="24" fill="#56B4E9" stroke="#111418" stroke-width="1"/><rect x="399.82" y="122" width="6.39" height="24" fill="#56B4E9" stroke="#111418" stroke-width="1"/><rect x="406.21" y="96" width="6.39" height="24" fill="#56B4E9" stroke="#111418" stroke-width="1"/><rect x="412.60" y="70" width="57.51" height="24" fill="#0072B2" stroke="#111418" stroke-width="1"/><text x="441.36" y="82" fill="#0d0f18" font-size="12" font-weight="bold" text-anchor="middle" dominant-baseline="middle">+</text><rect x="412.60" y="96" width="19.17" height="24" fill="#E69F00" stroke="#111418" stroke-width="1"/><rect x="412.60" y="122" width="6.39" height="24" fill="#56B4E9" stroke="#111418" stroke-width="1"/><rect x="418.99" y="122" width="6.39" height="24" fill="#56B4E9" stroke="#111418" stroke-width="1"/><rect x="425.38" y="122" width="6.39" height="24" fill="#56B4E9" stroke="#111418" stroke-width="1"/><rect x="431.78" y="96" width="19.17" height="24" fill="#E69F00" stroke="#111418" stroke-width="1"/><rect x="431.78" y="122" width="6.39" height="24" fill="#56B4E9" stroke="#111418" stroke-width="1"/><rect x="438.17" y="122" width="6.39" height="24" fill="#56B4E9" stroke="#111418" stroke-width="1"/><rect x="444.56" y="122" width="6.39" height="24" fill="#56B4E9" stroke="#111418" stroke-width="1"/><rect x="450.95" y="96" width="19.17" height="24" fill="#E69F00" stroke="#111418" stroke-width="1"/><rect x="450.95" y="122" width="6.39" height="24" fill="#56B4E9" stroke="#111418" stroke-width="1"/><rect x="457.34" y="122" width="6.39" height="24" fill="#56B4E9" stroke="#111418" stroke-width="1"/><rect x="463.73" y="122" width="6.39" height="24" fill="#56B4E9" stroke="#111418" stroke-width="1"/><rect x="470.12" y="70" width="31.95" height="24" fill="#0072B2" stroke="#111418" stroke-width="1"/><text x="486.09" y="82" fill="#0d0f18" font-size="12" font-weight="bold" text-anchor="middle" dominant-baseline="middle">+</text><rect x="470.12" y="96" width="6.39" height="24" fill="#56B4E9" stroke="#111418" stroke-width="1"/><rect x="476.51" y="96" width="6.39" height="24" fill="#56B4E9" stroke="#111418" stroke-width="1"/><rect x="482.90" y="96" width="6.39" height="24" fill="#56B4E9" stroke="#111418" stroke-width="1"/><rect x="489.29" y="96" width="6.39" height="24" fill="#56B4E9" stroke="#111418" stroke-width="1"/><rect x="495.68" y="96" width="6.39" height="24" fill="#56B4E9" stroke="#111418" stroke-width="1"/><rect x="502.07" y="70" width="19.17" height="24" fill="#E69F00" stroke="#111418" stroke-width="1"/><rect x="502.07" y="96" width="6.39" height="24" fill="#56B4E9" stroke="#111418" stroke-width="1"/><rect x="508.46" y="96" width="12.78" height="24" fill="#F0E442" stroke="#111418" stroke-width="1"/><rect x="508.46" y="122" width="6.39" height="24" fill="#56B4E9" stroke="#111418" stroke-width="1"/><rect x="514.85" y="122" width="6.39" height="24" fill="#56B4E9" stroke="#111418" stroke-width="1"/><rect x="521.24" y="70" width="57.51" height="24" fill="#E69F00" stroke="#111418" stroke-width="1"/><text x="550.00" y="82" fill="#0d0f18" font-size="12" font-weight="bold" text-anchor="middle" dominant-baseline="middle">x</text><rect x="521.24" y="96" width="19.17" height="24" fill="#0072B2" stroke="#111418" stroke-width="1"/><rect x="521.24" y="122" width="6.39" height="24" fill="#56B4E9" stroke="#111418" stroke-width="1"/><rect x="527.63" y="122" width="6.39" height="24" fill="#56B4E9" stroke="#111418" stroke-width="1"/><rect x="534.02" y="122" width="6.39" height="24" fill="#56B4E9" stroke="#111418" stroke-width="1"/><rect x="540.41" y="96" width="19.17" height="24" fill="#0072B2" stroke="#111418" stroke-width="1"/><rect x="540.41" y="122" width="6.39" height="24" fill="#56B4E9" stroke="#111418" stroke-width="1"/><rect x="546.80" y="122" width="6.39" height="24" fill="#56B4E9" stroke="#111418" stroke-width="1"/><rect x="553.20" y="122" width="6.39" height="24" fill="#56B4E9" stroke="#111418" stroke-width="1"/><rect x="559.59" y="96" width="19.17" height="24" fill="#0072B2" stroke="#111418" stroke-width="1"/><rect x="559.59" y="122" width="6.39" height="24" fill="#56B4E9" stroke="#111418" stroke-width="1"/><rect x="565.98" y="122" width="6.39" height="24" fill="#56B4E9" stroke="#111418" stroke-width="1"/><rect x="572.37" y="122" width="6.39" height="24" fill="#56B4E9" stroke="#111418" stroke-width="1"/><rect x="578.76" y="70" width="19.17" height="24" fill="#E69F00" stroke="#111418" stroke-width="1"/><rect x="578.76" y="96" width="12.78" height="24" fill="#8c8c8c" stroke="#111418" stroke-width="1"/><rect x="578.76" y="122" width="6.39" height="24" fill="#56B4E9" stroke="#111418" stroke-width="1"/><rect x="585.15" y="122" width="6.39" height="24" fill="#56B4E9" stroke="#111418" stroke-width="1"/><rect x="591.54" y="96" width="6.39" height="24" fill="#56B4E9" stroke="#111418" stroke-width="1"/><rect x="597.93" y="70" width="12.78" height="24" fill="#0072B2" stroke="#111418" stroke-width="1"/><rect x="597.93" y="96" width="6.39" height="24" fill="#56B4E9" stroke="#111418" stroke-width="1"/><rect x="604.32" y="96" width="6.39" height="24" fill="#56B4E9" stroke="#111418" stroke-width="1"/><rect x="610.71" y="70" width="19.17" height="24" fill="#E69F00" stroke="#111418" stroke-width="1"/><rect x="610.71" y="96" width="12.78" height="24" fill="#8c8c8c" stroke="#111418" stroke-width="1"/><rect x="610.71" y="122" width="6.39" height="24" fill="#56B4E9" stroke="#111418" stroke-width="1"/><rect x="617.10" y="122" width="6.39" height="24" fill="#56B4E9" stroke="#111418" stroke-width="1"/><rect x="623.49" y="96" width="6.39" height="24" fill="#56B4E9" stroke="#111418" stroke-width="1"/><rect x="629.88" y="70" width="19.17" height="24" fill="#E69F00" stroke="#111418" stroke-width="1"/><rect x="629.88" y="96" width="12.78" height="24" fill="#F0E442" stroke="#111418" stroke-width="1"/><rect x="629.88" y="122" width="6.39" height="24" fill="#56B4E9" stroke="#111418" stroke-width="1"/><rect x="636.27" y="122" width="6.39" height="24" fill="#56B4E9" stroke="#111418" stroke-width="1"/><rect x="642.66" y="96" width="6.39" height="24" fill="#56B4E9" stroke="#111418" stroke-width="1"/><rect x="649.05" y="70" width="44.73" height="24" fill="#E69F00" stroke="#111418" stroke-width="1"/><text x="671.42" y="82" fill="#0d0f18" font-size="12" font-weight="bold" text-anchor="middle" dominant-baseline="middle">x</text><rect x="649.05" y="96" width="38.34" height="24" fill="#F0E442" stroke="#111418" stroke-width="1"/><text x="668.22" y="108" fill="#0d0f18" font-size="12" font-weight="bold" text-anchor="middle" dominant-baseline="middle">&lt;</text><rect x="649.05" y="122" width="19.17" height="24" fill="#0072B2" stroke="#111418" stroke-width="1"/><rect x="649.05" y="148" width="6.39" height="24" fill="#56B4E9" stroke="#111418" stroke-width="1"/><rect x="655.44" y="148" width="6.39" height="24" fill="#56B4E9" stroke="#111418" stroke-width="1"/><rect x="661.83" y="148" width="6.39" height="24" fill="#56B4E9" stroke="#111418" stroke-width="1"/><rect x="668.22" y="122" width="19.17" height="24" fill="#0072B2" stroke="#111418" stroke-width="1"/><rect x="668.22" y="148" width="6.39" height="24" fill="#56B4E9" stroke="#111418" stroke-width="1"/><rect x="674.62" y="148" width="6.39" height="24" fill="#56B4E9" stroke="#111418" stroke-width="1"/><rect x="681.01" y="148" width="6.39" height="24" fill="#56B4E9" stroke="#111418" stroke-width="1"/><rect x="687.40" y="96" width="6.39" height="24" fill="#56B4E9" stroke="#111418" stroke-width="1"/><rect x="693.79" y="70" width="12.78" height="24" fill="#CC79A7" stroke="#111418" stroke-width="1"/><rect x="693.79" y="96" width="6.39" height="24" fill="#56B4E9" stroke="#111418" stroke-width="1"/><rect x="700.18" y="96" width="6.39" height="24" fill="#56B4E9" stroke="#111418" stroke-width="1"/><rect x="706.57" y="70" width="31.95" height="24" fill="#E69F00" stroke="#111418" stroke-width="1"/><text x="722.54" y="82" fill="#0d0f18" font-size="12" font-weight="bold" text-anchor="middle" dominant-baseline="middle">x</text><rect x="706.57" y="96" width="6.39" height="24" fill="#56B4E9" stroke="#111418" stroke-width="1"/><rect x="712.96" y="96" width="6.39" height="24" fill="#56B4E9" stroke="#111418" stroke-width="1"/><rect x="719.35" y="96" width="6.39" height="24" fill="#56B4E9" stroke="#111418" stroke-width="1"/><rect x="725.74" y="96" width="6.39" height="24" fill="#56B4E9" stroke="#111418" stroke-width="1"/><rect x="732.13" y="96" width="6.39" height="24" fill="#56B4E9" stroke="#111418" stroke-width="1"/><rect x="738.52" y="70" width="12.78" height="24" fill="#E69F00" stroke="#111418" stroke-width="1"/><rect x="738.52" y="96" width="6.39" height="24" fill="#56B4E9" stroke="#111418" stroke-width="1"/><rect x="744.91" y="96" width="6.39" height="24" fill="#56B4E9" stroke="#111418" stroke-width="1"/><rect x="751.30" y="70" width="6.39" height="24" fill="#56B4E9" stroke="#111418" stroke-width="1"/><rect x="757.69" y="70" width="19.17" height="24" fill="#E69F00" stroke="#111418" stroke-width="1"/><rect x="757.69" y="96" width="6.39" height="24" fill="#56B4E9" stroke="#111418" stroke-width="1"/><rect x="764.08" y="96" width="12.78" height="24" fill="#F0E442" stroke="#111418" stroke-width="1"/><rect x="764.08" y="122" width="6.39" height="24" fill="#56B4E9" stroke="#111418" stroke-width="1"/><rect x="770.47" y="122" width="6.39" height="24" fill="#56B4E9" stroke="#111418" stroke-width="1"/><rect x="776.86" y="70" width="31.95" height="24" fill="#009E73" stroke="#111418" stroke-width="1"/><text x="792.84" y="82" fill="#0d0f18" font-size="12" font-weight="bold" text-anchor="middle" dominant-baseline="middle">min</text><rect x="776.86" y="96" width="6.39" height="24" fill="#56B4E9" stroke="#111418" stroke-width="1"/><rect x="783.25" y="96" width="6.39" height="24" fill="#56B4E9" stroke="#111418" stroke-width="1"/><rect x="789.64" y="96" width="6.39" height="24" fill="#56B4E9" stroke="#111418" stroke-width="1"/><rect x="796.04" y="96" width="6.39" height="24" fill="#56B4E9" stroke="#111418" stroke-width="1"/><rect x="802.43" y="96" width="6.39" height="24" fill="#56B4E9" stroke="#111418" stroke-width="1"/><rect x="808.82" y="70" width="25.56" height="24" fill="#CC79A7" stroke="#111418" stroke-width="1"/><text x="821.60" y="82" fill="#0d0f18" font-size="12" font-weight="bold" text-anchor="middle" dominant-baseline="middle">max</text><rect x="808.82" y="96" width="6.39" height="24" fill="#56B4E9" stroke="#111418" stroke-width="1"/><rect x="815.21" y="96" width="6.39" height="24" fill="#56B4E9" stroke="#111418" stroke-width="1"/><rect x="821.60" y="96" width="6.39" height="24" fill="#56B4E9" stroke="#111418" stroke-width="1"/><rect x="827.99" y="96" width="6.39" height="24" fill="#56B4E9" stroke="#111418" stroke-width="1"/><rect x="834.38" y="70" width="19.17" height="24" fill="#E69F00" stroke="#111418" stroke-width="1"/><rect x="834.38" y="96" width="6.39" height="24" fill="#56B4E9" stroke="#111418" stroke-width="1"/><rect x="840.77" y="96" width="12.78" height="24" fill="#D55E00" stroke="#111418" stroke-width="1"/><rect x="840.77" y="122" width="6.39" height="24" fill="#56B4E9" stroke="#111418" stroke-width="1"/><rect x="847.16" y="122" width="6.39" height="24" fill="#56B4E9" stroke="#111418" stroke-width="1"/><rect x="853.55" y="70" width="19.17" height="24" fill="#0072B2" stroke="#111418" stroke-width="1"/><rect x="853.55" y="96" width="6.39" height="24" fill="#56B4E9" stroke="#111418" stroke-width="1"/><rect x="859.94" y="96" width="6.39" height="24" fill="#56B4E9" stroke="#111418" stroke-width="1"/><rect x="866.33" y="96" width="6.39" height="24" fill="#56B4E9" stroke="#111418" stroke-width="1"/><rect x="872.72" y="70" width="6.39" height="24" fill="#56B4E9" stroke="#111418" stroke-width="1"/><rect x="879.11" y="70" width="25.56" height="24" fill="#E69F00" stroke="#111418" stroke-width="1"/><text x="891.89" y="82" fill="#0d0f18" font-size="12" font-weight="bold" text-anchor="middle" dominant-baseline="middle">x</text><rect x="879.11" y="96" width="6.39" height="24" fill="#56B4E9" stroke="#111418" stroke-width="1"/><rect x="885.50" y="96" width="6.39" height="24" fill="#56B4E9" stroke="#111418" stroke-width="1"/><rect x="891.89" y="96" width="6.39" height="24" fill="#56B4E9" stroke="#111418" stroke-width="1"/><rect x="898.28" y="96" width="6.39" height="24" fill="#56B4E9" stroke="#111418" stroke-width="1"/><rect x="904.67" y="70" width="6.39" height="24" fill="#56B4E9" stroke="#111418" stroke-width="1"/><rect x="911.07" y="70" width="6.39" height="24" fill="#009E73" stroke="#111418" stroke-width="1"/><rect x="911.07" y="96" width="6.39" height="24" fill="#009E73" stroke="#111418" stroke-width="1"/><rect x="911.07" y="122" width="6.39" height="24" fill="#E69F00" stroke="#111418" stroke-width="1"/><rect x="911.07" y="148" width="6.39" height="24" fill="#009E73" stroke="#111418" stroke-width="1"/><rect x="911.07" y="174" width="6.39" height="24" fill="#009E73" stroke="#111418" stroke-width="1"/><rect x="911.07" y="200" width="6.39" height="24" fill="#E69F00" stroke="#111418" stroke-width="1"/><rect x="911.07" y="226" width="6.39" height="24" fill="#0072B2" stroke="#111418" stroke-width="1"/><rect x="911.07" y="252" width="6.39" height="24" fill="#009E73" stroke="#111418" stroke-width="1"/><rect x="911.07" y="278" width="6.39" height="24" fill="#E69F00" stroke="#111418" stroke-width="1"/><rect x="911.07" y="304" width="6.39" height="24" fill="#0072B2" stroke="#111418" stroke-width="1"/><rect x="911.07" y="330" width="6.39" height="24" fill="#CC79A7" stroke="#111418" stroke-width="1"/><rect x="911.07" y="356" width="6.39" height="24" fill="#009E73" stroke="#111418" stroke-width="1"/><rect x="911.07" y="382" width="6.39" height="24" fill="#0072B2" stroke="#111418" stroke-width="1"/><rect x="911.07" y="408" width="6.39" height="24" fill="#E69F00" stroke="#111418" stroke-width="1"/><rect x="911.07" y="434" width="6.39" height="24" fill="#009E73" stroke="#111418" stroke-width="1"/><rect x="911.07" y="460" width="6.39" height="24" fill="#0072B2" stroke="#111418" stroke-width="1"/><rect x="911.07" y="486" width="6.39" height="24" fill="#CC79A7" stroke="#111418" stroke-width="1"/><rect x="911.07" y="512" width="6.39" height="24" fill="#CC79A7" stroke="#111418" stroke-width="1"/><rect x="911.07" y="538" width="6.39" height="24" fill="#009E73" stroke="#111418" stroke-width="1"/><rect x="911.07" y="564" width="6.39" height="24" fill="#CC79A7" stroke="#111418" stroke-width="1"/><rect x="911.07" y="590" width="6.39" height="24" fill="#56B4E9" stroke="#111418" stroke-width="1"/><rect x="917.46" y="70" width="44.73" height="24" fill="#E69F00" stroke="#111418" stroke-width="1"/><text x="939.82" y="82" fill="#0d0f18" font-size="12" font-weight="bold" text-anchor="middle" dominant-baseline="middle">x</text><rect x="917.46" y="96" width="6.39" height="24" fill="#56B4E9" stroke="#111418" stroke-width="1"/><rect x="923.85" y="96" width="38.34" height="24" fill="#D55E00" stroke="#111418" stroke-width="1"/><text x="943.02" y="108" fill="#0d0f18" font-size="12" font-weight="bold" text-anchor="middle" dominant-baseline="middle">&gt;</text><rect x="923.85" y="122" width="19.17" height="24" fill="#0072B2" stroke="#111418" stroke-width="1"/><rect x="923.85" y="148" width="6.39" height="24" fill="#56B4E9" stroke="#111418" stroke-width="1"/><rect x="930.24" y="148" width="6.39" height="24" fill="#56B4E9" stroke="#111418" stroke-width="1"/><rect x="936.63" y="148" width="6.39" height="24" fill="#56B4E9" stroke="#111418" stroke-width="1"/><rect x="943.02" y="122" width="19.17" height="24" fill="#0072B2" stroke="#111418" stroke-width="1"/><rect x="943.02" y="148" width="6.39" height="24" fill="#56B4E9" stroke="#111418" stroke-width="1"/><rect x="949.41" y="148" width="6.39" height="24" fill="#56B4E9" stroke="#111418" stroke-width="1"/><rect x="955.80" y="148" width="6.39" height="24" fill="#56B4E9" stroke="#111418" stroke-width="1"/><rect x="962.19" y="70" width="6.39" height="24" fill="#56B4E9" stroke="#111418" stroke-width="1"/><rect x="968.58" y="70" width="6.39" height="24" fill="#CC79A7" stroke="#111418" stroke-width="1"/><rect x="968.58" y="96" width="6.39" height="24" fill="#56B4E9" stroke="#111418" stroke-width="1"/><rect x="974.97" y="70" width="44.73" height="24" fill="#E69F00" stroke="#111418" stroke-width="1"/><text x="997.34" y="82" fill="#0d0f18" font-size="12" font-weight="bold" text-anchor="middle" dominant-baseline="middle">x</text><rect x="974.97" y="96" width="38.34" height="24" fill="#D55E00" stroke="#111418" stroke-width="1"/><text x="994.14" y="108" fill="#0d0f18" font-size="12" font-weight="bold" text-anchor="middle" dominant-baseline="middle">&gt;</text><rect x="974.97" y="122" width="19.17" height="24" fill="#0072B2" stroke="#111418" stroke-width="1"/><rect x="974.97" y="148" width="6.39" height="24" fill="#56B4E9" stroke="#111418" stroke-width="1"/><rect x="981.36" y="148" width="6.39" height="24" fill="#56B4E9" stroke="#111418" stroke-width="1"/><rect x="987.75" y="148" width="6.39" height="24" fill="#56B4E9" stroke="#111418" stroke-width="1"/><rect x="994.14" y="122" width="19.17" height="24" fill="#0072B2" stroke="#111418" stroke-width="1"/><rect x="994.14" y="148" width="6.39" height="24" fill="#56B4E9" stroke="#111418" stroke-width="1"/><rect x="1000.53" y="148" width="6.39" height="24" fill="#56B4E9" stroke="#111418" stroke-width="1"/><rect x="1006.92" y="148" width="6.39" height="24" fill="#56B4E9" stroke="#111418" stroke-width="1"/><rect x="1013.31" y="96" width="6.39" height="24" fill="#56B4E9" stroke="#111418" stroke-width="1"/><rect x="1019.70" y="70" width="19.17" height="24" fill="#E69F00" stroke="#111418" stroke-width="1"/><rect x="1019.70" y="96" width="6.39" height="24" fill="#56B4E9" stroke="#111418" stroke-width="1"/><rect x="1026.09" y="96" width="12.78" height="24" fill="#F0E442" stroke="#111418" stroke-width="1"/><rect x="1026.09" y="122" width="6.39" height="24" fill="#56B4E9" stroke="#111418" stroke-width="1"/><rect x="1032.49" y="122" width="6.39" height="24" fill="#56B4E9" stroke="#111418" stroke-width="1"/><rect x="1038.88" y="70" width="31.95" height="24" fill="#CC79A7" stroke="#111418" stroke-width="1"/><text x="1054.85" y="82" fill="#0d0f18" font-size="12" font-weight="bold" text-anchor="middle" dominant-baseline="middle">max</text><rect x="1038.88" y="96" width="6.39" height="24" fill="#56B4E9" stroke="#111418" stroke-width="1"/><rect x="1045.27" y="96" width="6.39" height="24" fill="#56B4E9" stroke="#111418" stroke-width="1"/><rect x="1051.66" y="96" width="6.39" height="24" fill="#56B4E9" stroke="#111418" stroke-width="1"/><rect x="1058.05" y="96" width="6.39" height="24" fill="#56B4E9" stroke="#111418" stroke-width="1"/><rect x="1064.44" y="96" width="6.39" height="24" fill="#56B4E9" stroke="#111418" stroke-width="1"/><rect x="1070.83" y="70" width="19.17" height="24" fill="#E69F00" stroke="#111418" stroke-width="1"/><rect x="1070.83" y="96" width="6.39" height="24" fill="#56B4E9" stroke="#111418" stroke-width="1"/><rect x="1077.22" y="96" width="12.78" height="24" fill="#D55E00" stroke="#111418" stroke-width="1"/><rect x="1077.22" y="122" width="6.39" height="24" fill="#56B4E9" stroke="#111418" stroke-width="1"/><rect x="1083.61" y="122" width="6.39" height="24" fill="#56B4E9" stroke="#111418" stroke-width="1"/><rect x="10" y="617" width="12" height="12" fill="#0072B2"/><text x="26" y="627" fill="#9aa4b2" font-size="11">+ sum</text><rect x="140" y="617" width="12" height="12" fill="#E69F00"/><text x="156" y="627" fill="#9aa4b2" font-size="11">x product</text><rect x="270" y="617" width="12" height="12" fill="#009E73"/><text x="286" y="627" fill="#9aa4b2" font-size="11">min min</text><rect x="400" y="617" width="12" height="12" fill="#CC79A7"/><text x="416" y="627" fill="#9aa4b2" font-size="11">max max</text><rect x="530" y="617" width="12" height="12" fill="#56B4E9"/><text x="546" y="627" fill="#9aa4b2" font-size="11">lit literal</text><rect x="660" y="617" width="12" height="12" fill="#D55E00"/><text x="676" y="627" fill="#9aa4b2" font-size="11">&gt; gt</text><rect x="790" y="617" width="12" height="12" fill="#F0E442"/><text x="806" y="627" fill="#9aa4b2" font-size="11">&lt; lt</text><rect x="920" y="617" width="12" height="12" fill="#8c8c8c"/><text x="936" y="627" fill="#9aa4b2" font-size="11">= eq</text></svg>