<svg xmlns="http://www.w3.org/2000/svg" width="620" height="660" viewBox="0 0 620 660" font-family="monospace"><rect width="620" height="660" fill="#111418"/><text x="310" y="24" fill="#e8ecf4" font-size="13" text-anchor="middle">Cave network: squares = big (revisitable), circles = small (visit-limited)</text><line x1="353.8" y1="400.4" x2="330.5" y2="297.7" stroke="#3a4250" stroke-width="1.5"/><line x1="396.8" y1="558.8" x2="353.8" y2="400.4" stroke="#3a4250" stroke-width="1.5"/><line x1="470.7" y1="304.2" x2="321.8" y2="228.3" stroke="#3a4250" stroke-width="1.5"/><line x1="212.3" y1="257.2" x2="321.8" y2="228.3" stroke="#3a4250" stroke-width="1.5"/><line x1="478.0" y1="60.0" x2="559.1" y2="167.7" stroke="#3a4250" stroke-width="1.5"/><line x1="374.2" y1="156.5" x2="478.0" y2="60.0" stroke="#3a4250" stroke-width="1.5"/><line x1="457.8" y1="239.1" x2="374.2" y2="156.5" stroke="#3a4250" stroke-width="1.5"/><line x1="457.8" y1="239.1" x2="353.8" y2="400.4" stroke="#3a4250" stroke-width="1.5"/><line x1="330.5" y1="297.7" x2="374.2" y2="156.5" stroke="#3a4250" stroke-width="1.5"/><line x1="457.8" y1="239.1" x2="330.5" y2="297.7" stroke="#3a4250" stroke-width="1.5"/><line x1="203.3" y1="368.9" x2="321.8" y2="228.3" stroke="#3a4250" stroke-width="1.5"/><line x1="457.8" y1="239.1" x2="559.1" y2="167.7" stroke="#3a4250" stroke-width="1.5"/><line x1="457.8" y1="239.1" x2="478.0" y2="60.0" stroke="#3a4250" stroke-width="1.5"/><line x1="470.7" y1="304.2" x2="330.5" y2="297.7" stroke="#3a4250" stroke-width="1.5"/><line x1="203.3" y1="368.9" x2="330.5" y2="297.7" stroke="#3a4250" stroke-width="1.5"/><line x1="203.3" y1="368.9" x2="353.8" y2="400.4" stroke="#3a4250" stroke-width="1.5"/><line x1="470.7" y1="304.2" x2="353.8" y2="400.4" stroke="#3a4250" stroke-width="1.5"/><line x1="470.7" y1="304.2" x2="559.1" y2="167.7" stroke="#3a4250" stroke-width="1.5"/><line x1="470.7" y1="304.2" x2="374.2" y2="156.5" stroke="#3a4250" stroke-width="1.5"/><line x1="374.2" y1="156.5" x2="559.1" y2="167.7" stroke="#3a4250" stroke-width="1.5"/><line x1="212.3" y1="257.2" x2="330.5" y2="297.7" stroke="#3a4250" stroke-width="1.5"/><line x1="203.3" y1="368.9" x2="60.0" y2="445.9" stroke="#3a4250" stroke-width="1.5"/><line x1="212.3" y1="257.2" x2="374.2" y2="156.5" stroke="#3a4250" stroke-width="1.5"/><line x1="212.3" y1="257.2" x2="353.8" y2="400.4" stroke="#3a4250" stroke-width="1.5"/><rect x="183.3" y="348.9" width="40" height="40" rx="8" fill="#E69F00" stroke="#9c6c00" stroke-width="2"/><text x="203.3" y="368.9" fill="#0d0f18" font-size="13" font-weight="bold" text-anchor="middle" dominant-baseline="middle">EG</text><rect x="376.8" y="538.8" width="40" height="40" rx="8" fill="#E69F00" stroke="#9c6c00" stroke-width="2"/><text x="396.8" y="558.8" fill="#0d0f18" font-size="13" font-weight="bold" text-anchor="middle" dominant-baseline="middle">KW</text><rect x="450.7" y="284.2" width="40" height="40" rx="8" fill="#E69F00" stroke="#9c6c00" stroke-width="2"/><text x="470.7" y="304.2" fill="#0d0f18" font-size="13" font-weight="bold" text-anchor="middle" dominant-baseline="middle">LN</text><rect x="192.3" y="237.2" width="40" height="40" rx="8" fill="#E69F00" stroke="#9c6c00" stroke-width="2"/><text x="212.3" y="257.2" fill="#0d0f18" font-size="13" font-weight="bold" text-anchor="middle" dominant-baseline="middle">OF</text><rect x="437.8" y="219.1" width="40" height="40" rx="8" fill="#E69F00" stroke="#9c6c00" stroke-width="2"/><text x="457.8" y="239.1" fill="#0d0f18" font-size="13" font-weight="bold" text-anchor="middle" dominant-baseline="middle">TQ</text><circle cx="353.8" cy="400.4" r="20" fill="#56B4E9" stroke="#0072B2" stroke-width="2"/><text x="353.8" y="400.4" fill="#0d0f18" font-size="13" font-weight="bold" text-anchor="middle" dominant-baseline="middle">bj</text><circle cx="60.0" cy="445.9" r="20" fill="#56B4E9" stroke="#0072B2" stroke-width="2"/><text x="60.0" y="445.9" fill="#0d0f18" font-size="13" font-weight="bold" text-anchor="middle" dominant-baseline="middle">bn</text><circle cx="330.5" cy="297.7" r="20" fill="#56B4E9" stroke="#0072B2" stroke-width="2"/><text x="330.5" y="297.7" fill="#0d0f18" font-size="13" font-weight="bold" text-anchor="middle" dominant-baseline="middle">ch</text><rect x="301.8" y="208.3" width="40" height="40" rx="8" fill="#D55E00" stroke="#933f00" stroke-width="2"/><text x="321.8" y="228.3" fill="#0d0f18" font-size="13" font-weight="bold" text-anchor="middle" dominant-baseline="middle">end</text><circle cx="374.2" cy="156.5" r="20" fill="#56B4E9" stroke="#0072B2" stroke-width="2"/><text x="374.2" y="156.5" fill="#0d0f18" font-size="13" font-weight="bold" text-anchor="middle" dominant-baseline="middle">iw</text><rect x="458.0" y="40.0" width="40" height="40" rx="8" fill="#009E73" stroke="#006b4f" stroke-width="2"/><text x="478.0" y="60.0" fill="#0d0f18" font-size="13" font-weight="bold" text-anchor="middle" dominant-baseline="middle">start</text><circle cx="559.1" cy="167.7" r="20" fill="#56B4E9" stroke="#0072B2" stroke-width="2"/><text x="559.1" y="167.7" fill="#0d0f18" font-size="13" font-weight="bold" text-anchor="middle" dominant-baseline="middle">yv</text><text x="310" y="644" fill="#9aa4b2" font-size="12" text-anchor="middle">start (green) · end (vermilion) · big caves amber squares · small caves blue circles</text></svg>