<svg xmlns="http://www.w3.org/2000/svg" width="960" height="460" viewBox="0 0 960 460" font-family="monospace"><rect width="960" height="460" fill="#111418"/><text x="60" y="30" fill="#e8ecf4" font-size="14">Three-roll sums (27 → 7 universes)</text><rect x="64" y="351" width="48" height="49" fill="#56B4E9"/><text x="88" y="365" fill="#0d0f18" font-size="12" font-weight="bold" text-anchor="middle">1</text><text x="88" y="418" fill="#9aa4b2" font-size="12" text-anchor="middle">3</text><rect x="120" y="253" width="48" height="147" fill="#56B4E9"/><text x="144" y="267" fill="#0d0f18" font-size="12" font-weight="bold" text-anchor="middle">3</text><text x="144" y="418" fill="#9aa4b2" font-size="12" text-anchor="middle">4</text><rect x="176" y="106" width="48" height="294" fill="#56B4E9"/><text x="200" y="120" fill="#0d0f18" font-size="12" font-weight="bold" text-anchor="middle">6</text><text x="200" y="418" fill="#9aa4b2" font-size="12" text-anchor="middle">5</text><rect x="232" y="56" width="48" height="344" fill="#56B4E9"/><text x="256" y="70" fill="#0d0f18" font-size="12" font-weight="bold" text-anchor="middle">7</text><text x="256" y="418" fill="#9aa4b2" font-size="12" text-anchor="middle">6</text><rect x="288" y="106" width="48" height="294" fill="#56B4E9"/><text x="312" y="120" fill="#0d0f18" font-size="12" font-weight="bold" text-anchor="middle">6</text><text x="312" y="418" fill="#9aa4b2" font-size="12" text-anchor="middle">7</text><rect x="344" y="253" width="48" height="147" fill="#56B4E9"/><text x="368" y="267" fill="#0d0f18" font-size="12" font-weight="bold" text-anchor="middle">3</text><text x="368" y="418" fill="#9aa4b2" font-size="12" text-anchor="middle">8</text><rect x="400" y="351" width="48" height="49" fill="#56B4E9"/><text x="424" y="365" fill="#0d0f18" font-size="12" font-weight="bold" text-anchor="middle">1</text><text x="424" y="418" fill="#9aa4b2" font-size="12" text-anchor="middle">9</text><text x="257" y="440" fill="#9aa4b2" font-size="12" text-anchor="middle">roll sum</text><text x="525" y="30" fill="#e8ecf4" font-size="14">Universes won (part two)</text><rect x="590" y="56" width="111" height="344" fill="#E69F00"/><rect x="590" y="56" width="111" height="344" fill="none" stroke="#e8ecf4" stroke-width="2.5"/><text x="645" y="48" fill="#e8ecf4" font-size="12" text-anchor="middle">winner</text><text x="645" y="418" fill="#9aa4b2" font-size="12" text-anchor="middle">Player 1</text><text x="645" y="436" fill="#c8d0dc" font-size="11" text-anchor="middle">138,508,043,837,521</text><rect x="721" y="264" width="111" height="136" fill="#009E73"/><text x="776" y="418" fill="#9aa4b2" font-size="12" text-anchor="middle">Player 2</text><text x="776" y="436" fill="#c8d0dc" font-size="11" text-anchor="middle">55,038,424,587,582</text></svg>