<svg xmlns="http://www.w3.org/2000/svg" width="940" height="490" viewBox="0 0 940 490" font-family="monospace"><rect width="940" height="490" fill="#111418"/><text x="20" y="30" fill="#e8ecf4" font-size="16">Crab Cups: first 6 moves (solid ring = current, orange = picked up, dashed ring = destination)</text><text x="170" y="69" fill="#9aa4b2" font-size="12" text-anchor="middle">move 1</text><circle cx="170" cy="93" r="17" fill="#3a4450"/><circle cx="170" cy="93" r="19" fill="none" stroke="#e8ecf4" stroke-width="3"/><text x="170" y="98" fill="#0d0f18" font-size="14" font-weight="bold" text-anchor="middle">3</text><circle cx="212" cy="109" r="17" fill="#E69F00"/><text x="212" y="114" fill="#0d0f18" font-size="14" font-weight="bold" text-anchor="middle">2</text><circle cx="234" cy="148" r="17" fill="#E69F00"/><text x="234" y="153" fill="#0d0f18" font-size="14" font-weight="bold" text-anchor="middle">7</text><circle cx="227" cy="191" r="17" fill="#E69F00"/><text x="227" y="196" fill="#0d0f18" font-size="14" font-weight="bold" text-anchor="middle">4</text><circle cx="192" cy="221" r="17" fill="#3a4450"/><text x="192" y="226" fill="#0d0f18" font-size="14" font-weight="bold" text-anchor="middle">6</text><circle cx="148" cy="221" r="17" fill="#3a4450"/><text x="148" y="226" fill="#0d0f18" font-size="14" font-weight="bold" text-anchor="middle">5</text><circle cx="113" cy="192" r="17" fill="#F0E442"/><circle cx="113" cy="192" r="19" fill="none" stroke="#e8ecf4" stroke-width="2" stroke-dasharray="3 3"/><text x="113" y="197" fill="#0d0f18" font-size="14" font-weight="bold" text-anchor="middle">1</text><circle cx="106" cy="148" r="17" fill="#3a4450"/><text x="106" y="153" fill="#0d0f18" font-size="14" font-weight="bold" text-anchor="middle">8</text><circle cx="128" cy="109" r="17" fill="#3a4450"/><text x="128" y="114" fill="#0d0f18" font-size="14" font-weight="bold" text-anchor="middle">9</text><text x="470" y="69" fill="#9aa4b2" font-size="12" text-anchor="middle">move 2</text><circle cx="470" cy="93" r="17" fill="#3a4450"/><circle cx="470" cy="93" r="19" fill="none" stroke="#e8ecf4" stroke-width="3"/><text x="470" y="98" fill="#0d0f18" font-size="14" font-weight="bold" text-anchor="middle">6</text><circle cx="512" cy="109" r="17" fill="#E69F00"/><text x="512" y="114" fill="#0d0f18" font-size="14" font-weight="bold" text-anchor="middle">5</text><circle cx="534" cy="148" r="17" fill="#E69F00"/><text x="534" y="153" fill="#0d0f18" font-size="14" font-weight="bold" text-anchor="middle">1</text><circle cx="527" cy="191" r="17" fill="#E69F00"/><text x="527" y="196" fill="#0d0f18" font-size="14" font-weight="bold" text-anchor="middle">2</text><circle cx="492" cy="221" r="17" fill="#3a4450"/><text x="492" y="226" fill="#0d0f18" font-size="14" font-weight="bold" text-anchor="middle">7</text><circle cx="448" cy="221" r="17" fill="#F0E442"/><circle cx="448" cy="221" r="19" fill="none" stroke="#e8ecf4" stroke-width="2" stroke-dasharray="3 3"/><text x="448" y="226" fill="#0d0f18" font-size="14" font-weight="bold" text-anchor="middle">4</text><circle cx="413" cy="192" r="17" fill="#3a4450"/><text x="413" y="197" fill="#0d0f18" font-size="14" font-weight="bold" text-anchor="middle">8</text><circle cx="406" cy="148" r="17" fill="#3a4450"/><text x="406" y="153" fill="#0d0f18" font-size="14" font-weight="bold" text-anchor="middle">9</text><circle cx="428" cy="109" r="17" fill="#3a4450"/><text x="428" y="114" fill="#0d0f18" font-size="14" font-weight="bold" text-anchor="middle">3</text><text x="770" y="69" fill="#9aa4b2" font-size="12" text-anchor="middle">move 3</text><circle cx="770" cy="93" r="17" fill="#3a4450"/><circle cx="770" cy="93" r="19" fill="none" stroke="#e8ecf4" stroke-width="3"/><text x="770" y="98" fill="#0d0f18" font-size="14" font-weight="bold" text-anchor="middle">7</text><circle cx="812" cy="109" r="17" fill="#E69F00"/><text x="812" y="114" fill="#0d0f18" font-size="14" font-weight="bold" text-anchor="middle">4</text><circle cx="834" cy="148" r="17" fill="#E69F00"/><text x="834" y="153" fill="#0d0f18" font-size="14" font-weight="bold" text-anchor="middle">5</text><circle cx="827" cy="191" r="17" fill="#E69F00"/><text x="827" y="196" fill="#0d0f18" font-size="14" font-weight="bold" text-anchor="middle">1</text><circle cx="792" cy="221" r="17" fill="#3a4450"/><text x="792" y="226" fill="#0d0f18" font-size="14" font-weight="bold" text-anchor="middle">2</text><circle cx="748" cy="221" r="17" fill="#3a4450"/><text x="748" y="226" fill="#0d0f18" font-size="14" font-weight="bold" text-anchor="middle">8</text><circle cx="713" cy="192" r="17" fill="#3a4450"/><text x="713" y="197" fill="#0d0f18" font-size="14" font-weight="bold" text-anchor="middle">9</text><circle cx="706" cy="148" r="17" fill="#3a4450"/><text x="706" y="153" fill="#0d0f18" font-size="14" font-weight="bold" text-anchor="middle">3</text><circle cx="728" cy="109" r="17" fill="#F0E442"/><circle cx="728" cy="109" r="19" fill="none" stroke="#e8ecf4" stroke-width="2" stroke-dasharray="3 3"/><text x="728" y="114" fill="#0d0f18" font-size="14" font-weight="bold" text-anchor="middle">6</text><text x="170" y="279" fill="#9aa4b2" font-size="12" text-anchor="middle">move 4</text><circle cx="170" cy="303" r="17" fill="#3a4450"/><circle cx="170" cy="303" r="19" fill="none" stroke="#e8ecf4" stroke-width="3"/><text x="170" y="308" fill="#0d0f18" font-size="14" font-weight="bold" text-anchor="middle">2</text><circle cx="212" cy="319" r="17" fill="#E69F00"/><text x="212" y="324" fill="#0d0f18" font-size="14" font-weight="bold" text-anchor="middle">8</text><circle cx="234" cy="358" r="17" fill="#E69F00"/><text x="234" y="363" fill="#0d0f18" font-size="14" font-weight="bold" text-anchor="middle">9</text><circle cx="227" cy="401" r="17" fill="#E69F00"/><text x="227" y="406" fill="#0d0f18" font-size="14" font-weight="bold" text-anchor="middle">3</text><circle cx="192" cy="431" r="17" fill="#3a4450"/><text x="192" y="436" fill="#0d0f18" font-size="14" font-weight="bold" text-anchor="middle">6</text><circle cx="148" cy="431" r="17" fill="#3a4450"/><text x="148" y="436" fill="#0d0f18" font-size="14" font-weight="bold" text-anchor="middle">4</text><circle cx="113" cy="402" r="17" fill="#3a4450"/><text x="113" y="407" fill="#0d0f18" font-size="14" font-weight="bold" text-anchor="middle">5</text><circle cx="106" cy="358" r="17" fill="#F0E442"/><circle cx="106" cy="358" r="19" fill="none" stroke="#e8ecf4" stroke-width="2" stroke-dasharray="3 3"/><text x="106" y="363" fill="#0d0f18" font-size="14" font-weight="bold" text-anchor="middle">1</text><circle cx="128" cy="319" r="17" fill="#3a4450"/><text x="128" y="324" fill="#0d0f18" font-size="14" font-weight="bold" text-anchor="middle">7</text><text x="470" y="279" fill="#9aa4b2" font-size="12" text-anchor="middle">move 5</text><circle cx="470" cy="303" r="17" fill="#3a4450"/><circle cx="470" cy="303" r="19" fill="none" stroke="#e8ecf4" stroke-width="3"/><text x="470" y="308" fill="#0d0f18" font-size="14" font-weight="bold" text-anchor="middle">6</text><circle cx="512" cy="319" r="17" fill="#E69F00"/><text x="512" y="324" fill="#0d0f18" font-size="14" font-weight="bold" text-anchor="middle">4</text><circle cx="534" cy="358" r="17" fill="#E69F00"/><text x="534" y="363" fill="#0d0f18" font-size="14" font-weight="bold" text-anchor="middle">5</text><circle cx="527" cy="401" r="17" fill="#E69F00"/><text x="527" y="406" fill="#0d0f18" font-size="14" font-weight="bold" text-anchor="middle">1</text><circle cx="492" cy="431" r="17" fill="#3a4450"/><text x="492" y="436" fill="#0d0f18" font-size="14" font-weight="bold" text-anchor="middle">8</text><circle cx="448" cy="431" r="17" fill="#3a4450"/><text x="448" y="436" fill="#0d0f18" font-size="14" font-weight="bold" text-anchor="middle">9</text><circle cx="413" cy="402" r="17" fill="#F0E442"/><circle cx="413" cy="402" r="19" fill="none" stroke="#e8ecf4" stroke-width="2" stroke-dasharray="3 3"/><text x="413" y="407" fill="#0d0f18" font-size="14" font-weight="bold" text-anchor="middle">3</text><circle cx="406" cy="358" r="17" fill="#3a4450"/><text x="406" y="363" fill="#0d0f18" font-size="14" font-weight="bold" text-anchor="middle">7</text><circle cx="428" cy="319" r="17" fill="#3a4450"/><text x="428" y="324" fill="#0d0f18" font-size="14" font-weight="bold" text-anchor="middle">2</text><text x="770" y="279" fill="#9aa4b2" font-size="12" text-anchor="middle">move 6</text><circle cx="770" cy="303" r="17" fill="#3a4450"/><circle cx="770" cy="303" r="19" fill="none" stroke="#e8ecf4" stroke-width="3"/><text x="770" y="308" fill="#0d0f18" font-size="14" font-weight="bold" text-anchor="middle">8</text><circle cx="812" cy="319" r="17" fill="#E69F00"/><text x="812" y="324" fill="#0d0f18" font-size="14" font-weight="bold" text-anchor="middle">9</text><circle cx="834" cy="358" r="17" fill="#E69F00"/><text x="834" y="363" fill="#0d0f18" font-size="14" font-weight="bold" text-anchor="middle">3</text><circle cx="827" cy="401" r="17" fill="#E69F00"/><text x="827" y="406" fill="#0d0f18" font-size="14" font-weight="bold" text-anchor="middle">4</text><circle cx="792" cy="431" r="17" fill="#3a4450"/><text x="792" y="436" fill="#0d0f18" font-size="14" font-weight="bold" text-anchor="middle">5</text><circle cx="748" cy="431" r="17" fill="#3a4450"/><text x="748" y="436" fill="#0d0f18" font-size="14" font-weight="bold" text-anchor="middle">1</text><circle cx="713" cy="402" r="17" fill="#F0E442"/><circle cx="713" cy="402" r="19" fill="none" stroke="#e8ecf4" stroke-width="2" stroke-dasharray="3 3"/><text x="713" y="407" fill="#0d0f18" font-size="14" font-weight="bold" text-anchor="middle">7</text><circle cx="706" cy="358" r="17" fill="#3a4450"/><text x="706" y="363" fill="#0d0f18" font-size="14" font-weight="bold" text-anchor="middle">2</text><circle cx="728" cy="319" r="17" fill="#3a4450"/><text x="728" y="324" fill="#0d0f18" font-size="14" font-weight="bold" text-anchor="middle">6</text></svg>