<svg xmlns="http://www.w3.org/2000/svg" width="900" height="460" viewBox="0 0 900 460" font-family="monospace"><rect width="900" height="460" fill="#111418"/><text x="60" y="34" fill="#e8ecf4" font-size="16">Docking Data: floating bits per mask (part 2 fan-out)</text><line x1="60" y1="390" x2="840" y2="390" stroke="#3a424e"/><line x1="60" y1="60" x2="60" y2="390" stroke="#3a424e"/><text x="60" y="406" fill="#9aa4b2" font-size="10" text-anchor="middle">4</text><rect x="-1" y="147" width="122" height="243" fill="#0072B2"/><text x="60" y="143" fill="#c8d0dc" font-size="10" text-anchor="middle">17</text><text x="216" y="406" fill="#9aa4b2" font-size="10" text-anchor="middle">5</text><rect x="155" y="147" width="122" height="243" fill="#0072B2"/><text x="216" y="143" fill="#c8d0dc" font-size="10" text-anchor="middle">17</text><text x="372" y="406" fill="#9aa4b2" font-size="10" text-anchor="middle">6</text><rect x="311" y="132" width="122" height="258" fill="#0072B2"/><text x="372" y="128" fill="#c8d0dc" font-size="10" text-anchor="middle">18</text><text x="528" y="406" fill="#9aa4b2" font-size="10" text-anchor="middle">7</text><rect x="467" y="132" width="122" height="258" fill="#0072B2"/><text x="528" y="128" fill="#c8d0dc" font-size="10" text-anchor="middle">18</text><text x="684" y="406" fill="#9aa4b2" font-size="10" text-anchor="middle">8</text><rect x="623" y="175" width="122" height="215" fill="#0072B2"/><text x="684" y="171" fill="#c8d0dc" font-size="10" text-anchor="middle">15</text><text x="840" y="406" fill="#9aa4b2" font-size="10" text-anchor="middle">9</text><rect x="779" y="175" width="122" height="215" fill="#0072B2"/><text x="840" y="171" fill="#c8d0dc" font-size="10" text-anchor="middle">15</text><text x="450" y="432" fill="#9aa4b2" font-size="12" text-anchor="middle">number of X (floating) bits in the mask</text><circle cx="60" cy="244" r="3.5" fill="#E69F00"/><circle cx="216" cy="207" r="3.5" fill="#E69F00"/><circle cx="372" cy="170" r="3.5" fill="#E69F00"/><circle cx="528" cy="134" r="3.5" fill="#E69F00"/><circle cx="684" cy="97" r="3.5" fill="#E69F00"/><circle cx="840" cy="60" r="3.5" fill="#E69F00"/><polyline points="60,244 216,207 372,170 528,134 684,97 840,60" fill="none" stroke="#E69F00" stroke-width="2"/><text x="824" y="90" fill="#E69F00" font-size="11" text-anchor="end">512 addresses / write</text><rect x="60" y="434" width="12" height="12" fill="#0072B2"/><text x="78" y="444" fill="#e8ecf4" font-size="12">masks with this many X bits</text><circle cx="356" cy="440" r="5" fill="#E69F00"/><text x="368" y="444" fill="#e8ecf4" font-size="12">addresses per write = 2^X (log2 axis)</text></svg>